<svg width="147" height="26" viewBox="0 0 147 26" fill="none" xmlns="http://www.w3.org/2000/svg">
<path d="M30.875 26H0L15.4375 0L30.875 26ZM16.2979 24.2109H27.6885L21.9932 14.6182L16.2979 24.2109ZM3.18652 24.2109H14.6152L8.90039 14.5859L3.18652 24.2109ZM15.4561 23.8877L21.4121 13.8555H9.5L15.4561 23.8877ZM9.85059 12.9873H21.0244L15.4375 3.57715L9.85059 12.9873Z" fill="black"/>
<path d="M43.0952 7.94077H44.5803L44.6001 22H43.115V14.9704H37.0161V22H35.5309V7.94077H37.0161V13.5843H43.0952V7.94077ZM47.3052 16.9506C47.3052 15.9077 47.5032 14.9902 47.8993 14.1981C48.3085 13.406 48.8696 12.7856 49.5824 12.3368C50.2953 11.8747 51.1138 11.6437 52.0378 11.6437C52.9487 11.6437 53.754 11.8747 54.4536 12.3368C55.1533 12.7856 55.7012 13.406 56.0972 14.1981C56.4932 14.9902 56.6912 15.9077 56.6912 16.9506C56.6912 17.9802 56.4932 18.8977 56.0972 19.703C55.7144 20.4951 55.1797 21.1221 54.4933 21.5842C53.8068 22.033 53.0147 22.2574 52.117 22.2574C51.1666 22.2574 50.3283 22.033 49.6022 21.5842C48.8894 21.1221 48.3283 20.4951 47.9191 19.703C47.5098 18.8977 47.3052 17.9802 47.3052 16.9506ZM52.117 20.8713C52.7243 20.8713 53.2589 20.7063 53.721 20.3763C54.183 20.033 54.5461 19.571 54.8101 18.9901C55.0741 18.3961 55.2061 17.7162 55.2061 16.9506C55.2061 16.1849 55.0675 15.5116 54.7903 14.9308C54.5263 14.3367 54.1566 13.8747 53.6814 13.5447C53.2061 13.2014 52.6583 13.0298 52.0378 13.0298C51.391 13.0298 50.8167 13.2014 50.3151 13.5447C49.8266 13.8747 49.4438 14.3367 49.1666 14.9308C48.9026 15.5116 48.7772 16.1849 48.7904 16.9506C48.8036 17.7162 48.9488 18.3961 49.226 18.9901C49.5164 19.571 49.9125 20.033 50.4141 20.3763C50.9157 20.7063 51.4834 20.8713 52.117 20.8713ZM60.9211 22V12.0991H68.7824V13.5843H62.4062V22H60.9211ZM78.4775 20.6139V12.0991H79.9626V22H75.428C74.1871 22 73.2366 21.736 72.5766 21.2079C71.9165 20.6667 71.5865 19.7954 71.5865 18.5941V12.0991H73.0716V18.3961C73.0716 18.9241 73.1442 19.3532 73.2894 19.6832C73.4346 20 73.6921 20.2376 74.0617 20.3961C74.4445 20.5413 74.9924 20.6139 75.7052 20.6139H78.4775ZM87.9944 22.2772C86.6083 22.2772 85.4994 21.9274 84.6677 21.2277C83.836 20.5281 83.407 19.5842 83.3806 18.3961H84.8657C84.8921 19.1618 85.1825 19.7756 85.737 20.2376C86.2914 20.6865 87.0307 20.9043 87.9548 20.8911C88.628 20.8779 89.1759 20.7327 89.5983 20.4555C90.034 20.1782 90.2452 19.8284 90.232 19.406C90.2188 19.0231 90.0472 18.6931 89.7171 18.4159C89.3871 18.1387 88.8327 17.868 88.0538 17.604L86.8063 17.1684C85.7898 16.8119 85.0571 16.4291 84.6083 16.0199C84.1727 15.5974 83.9416 15.0826 83.9152 14.4753C83.902 13.9209 84.0406 13.4324 84.3311 13.01C84.6215 12.5876 85.0307 12.2575 85.5588 12.0199C86.1 11.7691 86.7271 11.6437 87.4399 11.6437C88.6676 11.6305 89.6511 11.9407 90.3904 12.5744C91.1297 13.1948 91.5125 14.0529 91.5389 15.1486L90.0538 15.1684C89.9614 14.5083 89.6841 13.9869 89.2221 13.6041C88.7601 13.2212 88.1792 13.0298 87.4795 13.0298C86.8459 13.0298 86.3376 13.1684 85.9548 13.4456C85.572 13.7229 85.3872 14.0727 85.4004 14.4951C85.4136 14.7856 85.5588 15.043 85.836 15.2674C86.1264 15.4918 86.6083 15.7228 87.2815 15.9605L88.5488 16.3961C89.6445 16.7657 90.43 17.1684 90.9052 17.604C91.3805 18.0265 91.6247 18.5545 91.6379 19.1882C91.6643 19.7954 91.5257 20.3301 91.2221 20.7921C90.9184 21.2541 90.4894 21.6172 89.935 21.8812C89.3805 22.1452 88.7337 22.2772 87.9944 22.2772ZM94.6004 22V7.74275H96.7984L107.254 20.1782V7.74275H108.858V22H106.66L96.2044 9.56451V22H94.6004ZM111.274 16.9506C111.274 15.9077 111.472 14.9902 111.868 14.1981C112.277 13.406 112.838 12.7856 113.551 12.3368C114.264 11.8747 115.083 11.6437 116.007 11.6437C116.918 11.6437 117.723 11.8747 118.423 12.3368C119.122 12.7856 119.67 13.406 120.066 14.1981C120.462 14.9902 120.66 15.9077 120.66 16.9506C120.66 17.9802 120.462 18.8977 120.066 19.703C119.683 20.4951 119.149 21.1221 118.462 21.5842C117.776 22.033 116.984 22.2574 116.086 22.2574C115.135 22.2574 114.297 22.033 113.571 21.5842C112.858 21.1221 112.297 20.4951 111.888 19.703C111.479 18.8977 111.274 17.9802 111.274 16.9506ZM116.086 20.8713C116.693 20.8713 117.228 20.7063 117.69 20.3763C118.152 20.033 118.515 19.571 118.779 18.9901C119.043 18.3961 119.175 17.7162 119.175 16.9506C119.175 16.1849 119.036 15.5116 118.759 14.9308C118.495 14.3367 118.126 13.8747 117.65 13.5447C117.175 13.2014 116.627 13.0298 116.007 13.0298C115.36 13.0298 114.786 13.2014 114.284 13.5447C113.796 13.8747 113.413 14.3367 113.135 14.9308C112.871 15.5116 112.746 16.1849 112.759 16.9506C112.772 17.7162 112.918 18.3961 113.195 18.9901C113.485 19.571 113.881 20.033 114.383 20.3763C114.885 20.7063 115.452 20.8713 116.086 20.8713ZM130.098 20.6139H131.722V22H129.821C128.58 22 127.629 21.7624 126.969 21.2871C126.309 20.7987 125.979 19.901 125.979 18.5941V13.8615H122.751V12.4754H125.979V9.38629H127.464V12.4754H131.682V13.8615H127.464V18.3961C127.464 18.9901 127.537 19.4456 127.682 19.7624C127.827 20.0792 128.091 20.3037 128.474 20.4357C128.857 20.5545 129.398 20.6139 130.098 20.6139ZM134.902 16.9506C134.902 15.8549 135.087 14.911 135.456 14.1189C135.839 13.3268 136.374 12.7196 137.06 12.2971C137.76 11.8615 138.578 11.6437 139.516 11.6437C140.413 11.6437 141.192 11.8615 141.852 12.2971C142.512 12.7328 143.021 13.3598 143.377 14.1783C143.733 14.9836 143.912 15.9407 143.912 17.0496V17.208H136.367C136.433 18.3301 136.763 19.2212 137.357 19.8812C137.951 20.5413 138.717 20.8713 139.654 20.8713C140.499 20.8713 141.166 20.6601 141.654 20.2376C142.156 19.8152 142.446 19.2212 142.526 18.4555H143.912C143.78 19.67 143.344 20.6073 142.605 21.2673C141.879 21.9274 140.895 22.2574 139.654 22.2574C138.691 22.2574 137.852 22.0462 137.14 21.6238C136.427 21.1881 135.872 20.5743 135.476 19.7822C135.093 18.9769 134.902 18.0331 134.902 16.9506ZM139.516 13.0298C138.671 13.0034 137.978 13.241 137.437 13.7427C136.908 14.2443 136.611 14.9374 136.545 15.8219H142.367C142.314 14.9902 142.031 14.3235 141.516 13.8219C141.001 13.3202 140.334 13.0562 139.516 13.0298Z" fill="black"/>
</svg>
