<svg width="404" height="404" viewBox="0 0 404 404" fill="none" xmlns="http://www.w3.org/2000/svg">
<path d="M244 159H355V228H255.027L319.856 314.871L260.714 359.007L200.083 277.762L145.75 359.941L84.8525 319.679L142.162 233H50V163H156V44H244V159Z" fill="white"/>
<rect x="191" y="44" width="17" height="168" fill="black"/>
<path d="M244 159H355V228H255.027L319.856 314.871L260.714 359.007L200.083 277.762L145.75 359.941L84.8525 319.679L142.162 233H50V163H156V44H244V159Z" fill="white"/>
<rect x="191" y="44" width="17" height="168" fill="black"/>
<rect x="199.259" y="194" width="17" height="168" transform="rotate(33.3096 199.259 194)" fill="black"/>
<rect x="298.583" y="331.251" width="17" height="168" transform="rotate(143.046 298.583 331.251)" fill="black"/>
<rect x="355" y="190" width="22" height="305" transform="rotate(90 355 190)" fill="black"/>
<path d="M202 0C313.562 0 404 90.4385 404 202C404 313.562 313.562 404 202 404C90.4385 404 0 313.562 0 202C0 90.4385 90.4385 0 202 0ZM201.654 26.9795C104.802 26.9795 26.2883 105.494 26.2881 202.346C26.2881 299.198 104.802 377.713 201.654 377.713C298.506 377.713 377.021 299.198 377.021 202.346C377.02 105.494 298.506 26.9796 201.654 26.9795Z" fill="white"/>
</svg>
